HIERARCHY
ROOT Hips
{
  OFFSET 0.000 72.666 0.000
  CHANNELS 6 Xposition Yposition Zposition Zrotation Xrotation Yrotation
  JOINT LeftUpLeg
  {
    OFFSET 4.159 0.540 1.867
    CHANNELS 6 Xposition Yposition Zposition Zrotation Xrotation Yrotation
    JOINT LeftLeg
    {
      OFFSET 0.000 -37.053 0.000
      CHANNELS 6 Xposition Yposition Zposition Zrotation Xrotation Yrotation
      JOINT LeftFoot
      {
        OFFSET 0.000 -36.153 0.000
        CHANNELS 6 Xposition Yposition Zposition Zrotation Xrotation Yrotation
        End Site
        {
          OFFSET 0.000 0.000 10.741
        }
      }
    }
  }
  JOINT RightUpLeg
  {
    OFFSET -4.159 0.540 1.867
    CHANNELS 6 Xposition Yposition Zposition Zrotation Xrotation Yrotation
    JOINT RightLeg
    {
      OFFSET 0.000 -37.053 0.000
      CHANNELS 6 Xposition Yposition Zposition Zrotation Xrotation Yrotation
      JOINT RightFoot
      {
        OFFSET 0.000 -36.153 0.000
        CHANNELS 6 Xposition Yposition Zposition Zrotation Xrotation Yrotation
        End Site
        {
          OFFSET 0.000 0.000 10.741
        }
      }
    }
  }
  JOINT Spine
  {
    OFFSET 0.000 34.300 0.000
    CHANNELS 6 Xposition Yposition Zposition Zrotation Xrotation Yrotation
    JOINT Spine1
    {
      OFFSET 0.000 25.000 0.000
      CHANNELS 6 Xposition Yposition Zposition Zrotation Xrotation Yrotation
      JOINT LeftShoulder
      {
        OFFSET 1.800 -0.600 0.200
        CHANNELS 6 Xposition Yposition Zposition Zrotation Xrotation Yrotation
        JOINT LeftArm
        {
          OFFSET 12.794 0.000 0.000
          CHANNELS 6 Xposition Yposition Zposition Zrotation Xrotation Yrotation
          JOINT LeftForeArm
          {
            OFFSET 24.887 0.000 0.000
            CHANNELS 6 Xposition Yposition Zposition Zrotation Xrotation Yrotation
            JOINT LeftHand
            {
              OFFSET 22.516 0.000 0.000
              CHANNELS 6 Xposition Yposition Zposition Zrotation Xrotation Yrotation
              JOINT LeftHandThumb1
              {
                OFFSET 4.877 -1.044 3.608
                CHANNELS 6 Xposition Yposition Zposition Zrotation Xrotation Yrotation
                JOINT LeftHandThumb2
                {
                  OFFSET 2.665 -0.000 -0.000
                  CHANNELS 6 Xposition Yposition Zposition Zrotation Xrotation Yrotation
                  JOINT LeftHandThumb3
                  {
                    OFFSET 2.543 0.000 0.000
                    CHANNELS 6 Xposition Yposition Zposition Zrotation Xrotation Yrotation
                    End Site
                    {
                      OFFSET 2.667 0.000 -0.000
                    }
                  }
                }
              }
              JOINT LeftHandIndex1
              {
                OFFSET 9.232 -0.301 2.144
                CHANNELS 6 Xposition Yposition Zposition Zrotation Xrotation Yrotation
                JOINT LeftHandIndex2
                {
                  OFFSET 4.225 -0.000 0.000
                  CHANNELS 6 Xposition Yposition Zposition Zrotation Xrotation Yrotation
                  JOINT LeftHandIndex3
                  {
                    OFFSET 2.654 -0.000 0.000
                    CHANNELS 6 Xposition Yposition Zposition Zrotation Xrotation Yrotation
                    End Site
                    {
                      OFFSET 1.958 0.000 -0.000
                    }
                  }
                }
              }
              JOINT LeftHandMiddle1
              {
                OFFSET 8.920 -0.000 -0.000
                CHANNELS 6 Xposition Yposition Zposition Zrotation Xrotation Yrotation
                JOINT LeftHandMiddle2
                {
                  OFFSET 4.863 -0.000 0.000
                  CHANNELS 6 Xposition Yposition Zposition Zrotation Xrotation Yrotation
                  JOINT LeftHandMiddle3
                  {
                    OFFSET 2.765 0.000 0.000
                    CHANNELS 6 Xposition Yposition Zposition Zrotation Xrotation Yrotation
                    End Site
                    {
                      OFFSET 2.006 0.000 -0.000
                    }
                  }
                }
              }
              JOINT LeftHandRing1
              {
                OFFSET 8.689 -0.126 -2.087
                CHANNELS 6 Xposition Yposition Zposition Zrotation Xrotation Yrotation
                JOINT LeftHandRing2
                {
                  OFFSET 4.538 -0.000 0.000
                  CHANNELS 6 Xposition Yposition Zposition Zrotation Xrotation Yrotation
                  JOINT LeftHandRing3
                  {
                    OFFSET 2.305 0.000 -0.000
                    CHANNELS 6 Xposition Yposition Zposition Zrotation Xrotation Yrotation
                    End Site
                    {
                      OFFSET 1.923 0.000 -0.000
                    }
                  }
                }
              }
              JOINT LeftHandPinky1
              {
                OFFSET 8.391 -0.817 -3.758
                CHANNELS 6 Xposition Yposition Zposition Zrotation Xrotation Yrotation
                JOINT LeftHandPinky2
                {
                  OFFSET 3.044 -0.000 0.000
                  CHANNELS 6 Xposition Yposition Zposition Zrotation Xrotation Yrotation
                  JOINT LeftHandPinky3
                  {
                    OFFSET 1.975 0.000 0.000
                    CHANNELS 6 Xposition Yposition Zposition Zrotation Xrotation Yrotation
                    End Site
                    {
                      OFFSET 1.667 -0.000 -0.000
                    }
                  }
                }
              }
            }
          }
        }
      }
      JOINT RightShoulder
      {
        OFFSET -1.800 -0.600 0.200
        CHANNELS 6 Xposition Yposition Zposition Zrotation Xrotation Yrotation
        JOINT RightArm
        {
          OFFSET -12.794 0.000 0.000
          CHANNELS 6 Xposition Yposition Zposition Zrotation Xrotation Yrotation
          JOINT RightForeArm
          {
            OFFSET -24.887 0.000 0.000
            CHANNELS 6 Xposition Yposition Zposition Zrotation Xrotation Yrotation
            JOINT RightHand
            {
              OFFSET -22.516 0.000 0.000
              CHANNELS 6 Xposition Yposition Zposition Zrotation Xrotation Yrotation
              JOINT RightHandThumb1
              {
                OFFSET -4.877 -1.044 3.608
                CHANNELS 6 Xposition Yposition Zposition Zrotation Xrotation Yrotation
                JOINT RightHandThumb2
                {
                  OFFSET -2.665 0.000 0.000
                  CHANNELS 6 Xposition Yposition Zposition Zrotation Xrotation Yrotation
                  JOINT RightHandThumb3
                  {
                    OFFSET -2.543 -0.000 0.000
                    CHANNELS 6 Xposition Yposition Zposition Zrotation Xrotation Yrotation
                    End Site
                    {
                      OFFSET -2.667 -0.000 0.000
                    }
                  }
                }
              }
              JOINT RightHandIndex1
              {
                OFFSET -9.232 -0.301 2.144
                CHANNELS 6 Xposition Yposition Zposition Zrotation Xrotation Yrotation
                JOINT RightHandIndex2
                {
                  OFFSET -4.225 -0.000 -0.000
                  CHANNELS 6 Xposition Yposition Zposition Zrotation Xrotation Yrotation
                  JOINT RightHandIndex3
                  {
                    OFFSET -2.654 0.000 0.000
                    CHANNELS 6 Xposition Yposition Zposition Zrotation Xrotation Yrotation
                    End Site
                    {
                      OFFSET -1.958 0.000 0.000
                    }
                  }
                }
              }
              JOINT RightHandMiddle1
              {
                OFFSET -8.920 0.000 -0.000
                CHANNELS 6 Xposition Yposition Zposition Zrotation Xrotation Yrotation
                JOINT RightHandMiddle2
                {
                  OFFSET -4.863 -0.000 0.000
                  CHANNELS 6 Xposition Yposition Zposition Zrotation Xrotation Yrotation
                  JOINT RightHandMiddle3
                  {
                    OFFSET -2.765 0.000 0.000
                    CHANNELS 6 Xposition Yposition Zposition Zrotation Xrotation Yrotation
                    End Site
                    {
                      OFFSET -2.006 0.000 0.000
                    }
                  }
                }
              }
              JOINT RightHandRing1
              {
                OFFSET -8.689 -0.126 -2.087
                CHANNELS 6 Xposition Yposition Zposition Zrotation Xrotation Yrotation
                JOINT RightHandRing2
                {
                  OFFSET -4.538 -0.000 0.000
                  CHANNELS 6 Xposition Yposition Zposition Zrotation Xrotation Yrotation
                  JOINT RightHandRing3
                  {
                    OFFSET -2.305 -0.000 0.000
                    CHANNELS 6 Xposition Yposition Zposition Zrotation Xrotation Yrotation
                    End Site
                    {
                      OFFSET -1.923 -0.000 0.000
                    }
                  }
                }
              }
              JOINT RightHandPinky1
              {
                OFFSET -8.391 -0.817 -3.758
                CHANNELS 6 Xposition Yposition Zposition Zrotation Xrotation Yrotation
                JOINT RightHandPinky2
                {
                  OFFSET -3.044 0.000 -0.000
                  CHANNELS 6 Xposition Yposition Zposition Zrotation Xrotation Yrotation
                  JOINT RightHandPinky3
                  {
                    OFFSET -1.975 -0.000 0.000
                    CHANNELS 6 Xposition Yposition Zposition Zrotation Xrotation Yrotation
                    End Site
                    {
                      OFFSET -1.667 0.000 0.000
                    }
                  }
                }
              }
            }
          }
        }
      }
      JOINT Neck
      {
        OFFSET 0.000 0.800 0.000
        CHANNELS 6 Xposition Yposition Zposition Zrotation Xrotation Yrotation
        JOINT Head
        {
          OFFSET 0.000 6.696 0.000
          CHANNELS 6 Xposition Yposition Zposition Zrotation Xrotation Yrotation
          End Site
          {
            OFFSET 0.000 12.270 0.000
          }
        }
      }
    }
  }
}
MOTION
Frames:	4
Frame Time:	0.033333
107.26398 81.49378 -280.39871 -2.96778 1.58595 -70.67561 8.27410 1.00927 2.41861 8.92425 -0.81227 -7.89819 0.01209 -38.68954 -0.02781 -3.41587 11.65865 -2.84381 -0.08619 -36.05050 0.13714 -1.26060 32.09140 1.19217 -2.75233 0.04195 2.41909 8.98399 -0.19948 -6.29060 -0.04156 -38.30198 -0.01549 -3.60032 7.45406 7.57935 0.00699 -35.29087 0.00916 0.77953 14.57083 4.77545 0.00376 30.36968 -0.00217 -1.43562 1.34448 -0.54412 0.01029 22.41129 0.00060 -1.90586 1.68304 -0.54136 1.47583 -0.36523 0.16313 -13.42248 1.92862 -8.00840 13.52959 -0.00131 0.01867 -52.19965 1.59299 2.91106 25.18312 -0.01168 0.00594 -9.22406 4.51889 -21.24466 23.72353 -0.00590 0.09072 -23.78378 14.56425 1.51632 4.87698 -1.04399 3.60802 -24.65687 4.21495 -9.08017 2.66498 -0.00002 -0.00003 0.00000 0.00000 10.00256 2.54300 0.00002 0.00002 -0.00000 0.00000 15.00000 9.23198 -0.30098 2.14399 -20.00000 -0.00000 0.00000 4.22502 -0.00002 0.00002 -25.00000 0.00000 -0.00000 2.65402 -0.00002 0.00001 -29.90535 2.49801 -4.33577 8.91998 -0.00002 -0.00001 -20.00000 -0.00000 0.00000 4.86301 -0.00002 0.00001 -25.00000 0.00000 -0.00000 2.76501 0.00000 0.00001 -29.90535 2.49801 -4.33577 8.68899 -0.12600 -2.08700 -20.00000 -0.00000 0.00000 4.53798 -0.00002 0.00001 -25.00000 0.00000 -0.00000 2.30500 0.00000 -0.00001 -29.90535 2.49801 -4.33577 8.39098 -0.81701 -3.75800 -20.00000 -0.00000 0.00000 3.04401 -0.00002 0.00001 -25.00000 0.00000 -0.00000 1.97502 0.00000 0.00000 -29.90535 2.49801 -4.33577 -1.50948 -0.60704 0.22527 22.07788 3.04451 7.35268 -14.69214 -0.00904 -0.00801 60.09011 7.42180 2.02479 -24.63704 0.02059 -0.00169 -1.62131 4.84187 12.30455 -24.61827 0.09171 0.04174 -9.16112 9.10414 17.87616 -4.87701 -1.04401 3.60799 24.66570 4.20854 9.07947 -2.66500 0.00002 0.00000 -0.00000 0.00000 -10.00000 -2.54300 -0.00001 0.00000 0.00000 0.00000 -15.00000 -9.23201 -0.30102 2.14398 20.00000 -0.00001 -0.00000 -4.22500 -0.00001 -0.00005 25.00000 0.00000 0.00000 -2.65402 0.00000 0.00000 29.90550 2.49762 4.33287 -8.92001 0.00000 -0.00002 20.00000 -0.00001 -0.00000 -4.86300 -0.00004 0.00000 25.00000 0.00000 0.00000 -2.76499 0.00002 0.00000 29.90550 2.49762 4.33287 -8.68901 -0.12600 -2.08704 20.00000 -0.00001 -0.00000 -4.53801 -0.00002 0.00000 25.00000 0.00000 0.00000 -2.30500 -0.00001 0.00002 29.90550 2.49762 4.33287 -8.39100 -0.81702 -3.75800 20.00000 -0.00001 -0.00000 -3.04401 0.00000 -0.00002 25.00000 0.00000 0.00000 -1.97501 -0.00001 0.00000 29.90550 2.49762 4.33287 0.00007 0.74033 0.00000 -0.00001 -0.00001 0.00001 0.00284 6.64394 -0.00628 24.58558 17.78103 60.83921 
106.81376 81.57133 -280.35083 -3.12105 1.48394 -70.98322 8.24395 1.00524 2.40549 8.90290 -0.07428 -7.90617 0.01209 -38.80392 -0.02781 -3.53236 10.64713 -2.29220 -0.06632 -36.04542 0.11403 -1.99960 32.93724 2.72123 -2.67180 0.02269 2.40656 9.32045 0.53534 -6.17607 -0.03169 -38.38921 -0.01549 -4.06906 6.61781 8.07353 0.00699 -35.08870 0.00916 0.23536 13.18108 5.59048 0.00376 30.39018 -0.00217 -1.46176 1.35358 -0.62719 0.01029 22.41129 0.00060 -1.92629 1.68075 -0.63281 1.46741 -0.36523 0.16313 -13.45081 1.87827 -7.77758 13.48766 -0.00131 0.01867 -52.03851 1.79883 2.84917 25.14771 -0.01168 0.00594 -9.38987 4.38252 -20.84484 23.78390 -0.00590 0.07878 -24.20904 14.17568 1.42629 4.87698 -1.04399 3.60802 -24.65687 4.21495 -9.08017 2.66498 -0.00002 -0.00003 0.00000 0.00000 10.00256 2.54300 0.00002 0.00002 -0.00000 0.00000 15.00000 9.23198 -0.30098 2.14399 -20.00000 -0.00000 0.00000 4.22502 -0.00002 0.00002 -25.00000 0.00000 -0.00000 2.65402 -0.00002 0.00001 -29.90535 2.49801 -4.33577 8.91998 -0.00002 -0.00001 -20.00000 -0.00000 0.00000 4.86301 -0.00002 0.00001 -25.00000 0.00000 -0.00000 2.76501 0.00000 0.00001 -29.90535 2.49801 -4.33577 8.68899 -0.12600 -2.08700 -20.00000 -0.00000 0.00000 4.53798 -0.00002 0.00001 -25.00000 0.00000 -0.00000 2.30500 0.00000 -0.00001 -29.90535 2.49801 -4.33577 8.39098 -0.81701 -3.75800 -20.00000 -0.00000 0.00000 3.04401 -0.00002 0.00001 -25.00000 0.00000 -0.00000 1.97502 0.00000 0.00000 -29.90535 2.49801 -4.33577 -1.51591 -0.60704 0.21767 21.78115 2.89219 7.10353 -14.73176 -0.00904 -0.00801 60.37564 7.27577 2.71148 -24.65271 0.02059 -0.00169 -1.70249 4.64322 13.20267 -24.65633 0.09171 0.04174 -8.29702 9.85972 17.96544 -4.87701 -1.04401 3.60799 24.66570 4.20854 9.07947 -2.66500 0.00002 0.00000 -0.00000 0.00000 -10.00000 -2.54300 -0.00001 0.00000 0.00000 0.00000 -15.00000 -9.23201 -0.30102 2.14398 20.00000 -0.00001 -0.00000 -4.22500 -0.00001 -0.00005 25.00000 0.00000 0.00000 -2.65402 0.00000 0.00000 29.90550 2.49762 4.33287 -8.92001 0.00000 -0.00002 20.00000 -0.00001 -0.00000 -4.86300 -0.00004 0.00000 25.00000 0.00000 0.00000 -2.76499 0.00002 0.00000 29.90550 2.49762 4.33287 -8.68901 -0.12600 -2.08704 20.00000 -0.00001 -0.00000 -4.53801 -0.00002 0.00000 25.00000 0.00000 0.00000 -2.30500 -0.00001 0.00002 29.90550 2.49762 4.33287 -8.39100 -0.81702 -3.75800 20.00000 -0.00001 -0.00000 -3.04401 0.00000 -0.00002 25.00000 0.00000 0.00000 -1.97501 -0.00001 0.00000 29.90550 2.49762 4.33287 0.00007 0.74033 0.00000 -0.00001 -0.00001 0.00001 0.00284 6.64394 -0.00628 24.94645 18.03847 60.86082 
106.30347 81.68372 -280.21854 -3.37333 1.30987 -71.32666 8.20647 0.99043 2.38187 8.79675 0.96691 -7.91323 0.01209 -38.92766 -0.02781 -3.52639 9.69064 -1.62959 -0.04993 -35.99963 0.08855 -2.56762 33.04294 3.98565 -2.58876 0.00081 2.38433 9.47149 1.55051 -6.10478 -0.02339 -38.46531 -0.01378 -4.36579 5.69506 8.58746 0.00699 -34.97785 0.00916 -0.14779 12.05011 6.08355 0.00376 30.40072 -0.00217 -1.49914 1.38950 -0.69188 0.01029 22.41129 0.00060 -1.95669 1.70087 -0.70682 1.45756 -0.36523 0.16313 -13.60087 1.83599 -7.50610 13.43627 -0.00131 0.01867 -51.81369 2.04947 2.75335 25.20238 -0.01168 0.00594 -9.56599 4.27106 -20.27961 23.73336 -0.00590 0.06792 -24.82964 13.90712 1.51479 4.87698 -1.04399 3.60802 -24.65687 4.21495 -9.08017 2.66498 -0.00002 -0.00003 0.00000 0.00000 10.00256 2.54300 0.00002 0.00002 -0.00000 0.00000 15.00000 9.23198 -0.30098 2.14399 -20.00000 -0.00000 0.00000 4.22502 -0.00002 0.00002 -25.00000 0.00000 -0.00000 2.65402 -0.00002 0.00001 -29.90535 2.49801 -4.33577 8.91998 -0.00002 -0.00001 -20.00000 -0.00000 0.00000 4.86301 -0.00002 0.00001 -25.00000 0.00000 -0.00000 2.76501 0.00000 0.00001 -29.90535 2.49801 -4.33577 8.68899 -0.12600 -2.08700 -20.00000 -0.00000 0.00000 4.53798 -0.00002 0.00001 -25.00000 0.00000 -0.00000 2.30500 0.00000 -0.00001 -29.90535 2.49801 -4.33577 8.39098 -0.81701 -3.75800 -20.00000 -0.00000 0.00000 3.04401 -0.00002 0.00001 -25.00000 0.00000 -0.00000 1.97502 0.00000 0.00000 -29.90535 2.49801 -4.33577 -1.52560 -0.60704 0.20880 21.58163 2.73243 6.79818 -14.81173 -0.00904 -0.00801 60.67676 7.17058 3.38420 -24.67231 0.02059 0.00266 -1.70447 4.31957 13.93178 -24.69901 0.09171 0.04174 -7.30818 9.96767 18.66023 -4.87701 -1.04401 3.60799 24.66570 4.20854 9.07947 -2.66500 0.00002 0.00000 -0.00000 0.00000 -10.00000 -2.54300 -0.00001 0.00000 0.00000 0.00000 -15.00000 -9.23201 -0.30102 2.14398 20.00000 -0.00001 -0.00000 -4.22500 -0.00001 -0.00005 25.00000 0.00000 0.00000 -2.65402 0.00000 0.00000 29.90550 2.49762 4.33287 -8.92001 0.00000 -0.00002 20.00000 -0.00001 -0.00000 -4.86300 -0.00004 0.00000 25.00000 0.00000 0.00000 -2.76499 0.00002 0.00000 29.90550 2.49762 4.33287 -8.68901 -0.12600 -2.08704 20.00000 -0.00001 -0.00000 -4.53801 -0.00002 0.00000 25.00000 0.00000 0.00000 -2.30500 -0.00001 0.00002 29.90550 2.49762 4.33287 -8.39100 -0.81702 -3.75800 20.00000 -0.00001 -0.00000 -3.04401 0.00000 -0.00002 25.00000 0.00000 0.00000 -1.97501 -0.00001 0.00000 29.90550 2.49762 4.33287 0.00007 0.74033 0.00000 -0.00001 -0.00001 0.00001 0.00284 6.64394 -0.00628 25.37065 18.32866 60.94310 
105.82777 81.76694 -280.03406 -3.62077 1.10103 -71.55525 8.14517 0.95813 2.36530 8.64637 2.01476 -8.05174 0.01209 -38.98969 -0.02458 -3.48234 8.78380 -0.93207 -0.03751 -35.96574 0.06831 -2.84176 33.05946 4.66776 -2.48956 -0.00411 2.36882 9.42176 2.59571 -6.21929 -0.01653 -38.51333 -0.01084 -4.51888 4.79435 9.09514 0.00699 -34.91896 0.00916 -0.39056 11.20605 6.28278 0.00376 30.42336 -0.00217 -1.53775 1.41247 -0.84532 0.01029 22.41599 0.00060 -1.99306 1.72121 -0.86291 1.45002 -0.36523 0.16313 -13.72779 1.81005 -7.32120 13.40624 -0.00131 0.01867 -51.72750 2.17188 2.81809 25.26677 -0.01168 0.00594 -9.62122 4.17574 -19.93708 23.68064 -0.00276 0.06295 -25.32620 13.84664 2.39899 4.87698 -1.04399 3.60802 -24.65687 4.21495 -9.08017 2.66498 -0.00002 -0.00003 0.00000 0.00000 10.00256 2.54300 0.00002 0.00002 -0.00000 0.00000 15.00000 9.23198 -0.30098 2.14399 -20.00000 -0.00000 0.00000 4.22502 -0.00002 0.00002 -25.00000 0.00000 -0.00000 2.65402 -0.00002 0.00001 -29.90535 2.49801 -4.33577 8.91998 -0.00002 -0.00001 -20.00000 -0.00000 0.00000 4.86301 -0.00002 0.00001 -25.00000 0.00000 -0.00000 2.76501 0.00000 0.00001 -29.90535 2.49801 -4.33577 8.68899 -0.12600 -2.08700 -20.00000 -0.00000 0.00000 4.53798 -0.00002 0.00001 -25.00000 0.00000 -0.00000 2.30500 0.00000 -0.00001 -29.90535 2.49801 -4.33577 8.39098 -0.81701 -3.75800 -20.00000 -0.00000 0.00000 3.04401 -0.00002 0.00001 -25.00000 0.00000 -0.00000 1.97502 0.00000 0.00000 -29.90535 2.49801 -4.33577 -1.53468 -0.60564 0.20217 21.41718 2.61787 6.58433 -14.89323 -0.00792 -0.00801 61.15329 6.94511 4.27375 -24.69797 0.02047 0.00972 -1.84710 3.91922 13.89367 -24.74036 0.08644 0.04398 -6.23727 9.83733 19.63728 -4.87701 -1.04401 3.60799 24.66570 4.20854 9.07947 -2.66500 0.00002 0.00000 -0.00000 0.00000 -10.00000 -2.54300 -0.00001 0.00000 0.00000 0.00000 -15.00000 -9.23201 -0.30102 2.14398 20.00000 -0.00001 -0.00000 -4.22500 -0.00001 -0.00005 25.00000 0.00000 0.00000 -2.65402 0.00000 0.00000 29.90550 2.49762 4.33287 -8.92001 0.00000 -0.00002 20.00000 -0.00001 -0.00000 -4.86300 -0.00004 0.00000 25.00000 0.00000 0.00000 -2.76499 0.00002 0.00000 29.90550 2.49762 4.33287 -8.68901 -0.12600 -2.08704 20.00000 -0.00001 -0.00000 -4.53801 -0.00002 0.00000 25.00000 0.00000 0.00000 -2.30500 -0.00001 0.00002 29.90550 2.49762 4.33287 -8.39100 -0.81702 -3.75800 20.00000 -0.00001 -0.00000 -3.04401 0.00000 -0.00002 25.00000 0.00000 0.00000 -1.97501 -0.00001 0.00000 29.90550 2.49762 4.33287 0.00007 0.74033 0.00000 -0.00001 -0.00001 0.00001 0.00284 6.64394 -0.00628 25.72985 18.59003 60.54738 
